<?xml version="1.0" encoding="utf-8"?>
<svg version="1.1" xmlns:xlink="http://www.w3.org/1999/xlink" width="20px" height="20px" viewBox="1567 386.5  20 20" xmlns="http://www.w3.org/2000/svg">
  <path d="M 1577 386.5  C 1582.6 386.5  1587 390.9  1587 396.5  C 1587 402.1  1582.6 406.5  1577 406.5  C 1571.4 406.5  1567 402.1  1567 396.5  C 1567 390.9  1571.4 386.5  1577 386.5  Z " fill-rule="nonzero" fill="#f0f0f0" stroke="none" />
  <path d="M 1577 387  C 1582.32 387  1586.5 391.18  1586.5 396.5  C 1586.5 401.82  1582.32 406  1577 406  C 1571.68 406  1567.5 401.82  1567.5 396.5  C 1567.5 391.18  1571.68 387  1577 387  Z " stroke-width="1" stroke="#797979" fill="none" />
  <path d="M 1577 401.5  C 1574.2 401.5  1572 399.3  1572 396.5  C 1572 393.7  1574.2 391.5  1577 391.5  C 1579.8 391.5  1582 393.7  1582 396.5  C 1582 399.3  1579.8 401.5  1577 401.5  " fill-rule="nonzero" fill="#797979" stroke="none" />
</svg>