<?xml version="1.0" encoding="utf-8"?>
<svg version="1.1" xmlns:xlink="http://www.w3.org/1999/xlink" width="20px" height="20px" viewBox="1567 491.5  20 20" xmlns="http://www.w3.org/2000/svg">
  <path d="M 1577 491.5  C 1582.6 491.5  1587 495.9  1587 501.5  C 1587 507.1  1582.6 511.5  1577 511.5  C 1571.4 511.5  1567 507.1  1567 501.5  C 1567 495.9  1571.4 491.5  1577 491.5  Z " fill-rule="nonzero" fill="#ffffff" stroke="none" />
  <path d="M 1577 492  C 1582.32 492  1586.5 496.18  1586.5 501.5  C 1586.5 506.82  1582.32 511  1577 511  C 1571.68 511  1567.5 506.82  1567.5 501.5  C 1567.5 496.18  1571.68 492  1577 492  Z " stroke-width="1" stroke="#797979" fill="none" />
  <path d="M 1577 506.5  C 1574.2 506.5  1572 504.3  1572 501.5  C 1572 498.7  1574.2 496.5  1577 496.5  C 1579.8 496.5  1582 498.7  1582 501.5  C 1582 504.3  1579.8 506.5  1577 506.5  " fill-rule="nonzero" fill="#797979" stroke="none" />
</svg>