<?xml version="1.0" encoding="utf-8"?>
<svg version="1.1" xmlns:xlink="http://www.w3.org/1999/xlink" width="21px" height="15px" xmlns="http://www.w3.org/2000/svg">
  <g transform="matrix(1 0 0 1 -2 -5 )">
    <path d="M 0 7.50000048328093  C 0 4.29452808712769  5.25028548333408 0  10.5 0  C 15.7497145166659 0  21 4.29452808712769  21 7.50000048328093  C 21 10.7054728794342  15.7497145166659 15  10.5 15  C 5.25028548333408 15  0 10.7054728794342  0 7.50000048328093  Z M 19.1826930113093 7.50000048328093  C 19.1826930113093 5.3939110082632  14.818685965123 1.82432461168055  10.5 1.82432461168055  C 6.18131403487697 1.82432461168055  1.81730783117947 5.3939110082632  1.81730783117947 7.50000048328093  C 1.81730783117947 9.60608995829866  6.18131403487697 13.1756763548813  10.5 13.1756763548813  C 14.818685965123 13.1756763548813  19.1826930113093 9.60608995829866  19.1826930113093 7.50000048328093  Z M 7.06730843295715 7.50000048328093  C 7.06730843295715 5.59685698087058  8.60417630848248 4.05405474632133  10.5 4.05405474632133  C 12.3958236915175 4.05405474632133  13.932692048465 5.59685698087058  13.932692048465 7.50000048328093  C 13.932692048465 9.40314398569127  12.3958236915175 10.9459457369596  10.5 10.9459457369596  C 8.60417630848248 10.9459457369596  7.06730843295715 9.40314398569127  7.06730843295715 7.50000048328093  Z M 12.1153850597743 7.50000048328093  C 12.1153850597743 6.60440353741664  11.3921523289599 5.87837839144002  10.5 5.87837839144002  C 9.60784767104012 5.87837839144002  8.88461494022571 6.60440353741664  8.88461494022571 7.50000048328093  C 8.88461494022571 8.39559742914522  9.60784767104012 9.1216220918409  10.5 9.1216220918409  C 11.3921523289599 9.1216220918409  12.1153850597743 8.39559742914522  12.1153850597743 7.50000048328093  Z " fill-rule="nonzero" fill="#99a2ad" stroke="none" transform="matrix(1 0 0 1 2 5 )" />
  </g>
</svg>