<?xml version="1.0" encoding="utf-8"?>
<svg version="1.1" xmlns:xlink="http://www.w3.org/1999/xlink" width="18px" height="18px" xmlns="http://www.w3.org/2000/svg">
  <defs>
    <mask fill="white" id="clip17">
      <path d="M 18 18  L 11.7000002861023 11.7000002861023  L 18 18  Z M 6.75 13.5  C 7.63642260432243 13.5000000132087  8.51416549086571 13.3254067003727  9.33311319351196 12.9861874580383  C 10.1520608961582 12.646968215704  10.8961747437716 12.1497656553984  11.522970199585 11.522970199585  C 12.1497656553984 10.8961747437716  12.6469681933522 10.1520608961582  12.9861874580383 9.33311319351196  C 13.3254067227244 8.51416549086571  13.5 7.63642260432243  13.5 6.75  C 13.5 5.86357739567757  13.3254067227244 4.98583450913429  12.9861874580383 4.16688680648804  C 12.6469681933522 3.34793910384178  12.1497656553984 2.60382454097271  11.522970199585 1.9770290851593  C 10.8961747437716 1.35023362934589  10.1520608961582 0.853032499551773  9.33311319351196 0.513813257217407  C 8.51416549086571 0.174594014883041  7.63642260432243 0  6.75 0  C 4.95978873968124 0  3.24289959669113 0.711158573627472  1.9770290851593 1.9770290851593  C 0.711158573627472 3.24289959669113  0 4.95978873968124  0 6.75  C 0 8.54021126031876  0.711158573627472 10.2570996880531  1.9770290851593 11.522970199585  C 3.24289959669113 12.7888407111168  4.95978873968124 13.4999999733238  6.75 13.5  Z " fill-rule="evenodd" />
    </mask>
  </defs>
  <g transform="matrix(1 0 0 1 -9 -9 )">
    <path d="M 18 18  L 11.7000002861023 11.7000002861023  L 18 18  Z M 6.75 13.5  C 7.63642260432243 13.5000000132087  8.51416549086571 13.3254067003727  9.33311319351196 12.9861874580383  C 10.1520608961582 12.646968215704  10.8961747437716 12.1497656553984  11.522970199585 11.522970199585  C 12.1497656553984 10.8961747437716  12.6469681933522 10.1520608961582  12.9861874580383 9.33311319351196  C 13.3254067227244 8.51416549086571  13.5 7.63642260432243  13.5 6.75  C 13.5 5.86357739567757  13.3254067227244 4.98583450913429  12.9861874580383 4.16688680648804  C 12.6469681933522 3.34793910384178  12.1497656553984 2.60382454097271  11.522970199585 1.9770290851593  C 10.8961747437716 1.35023362934589  10.1520608961582 0.853032499551773  9.33311319351196 0.513813257217407  C 8.51416549086571 0.174594014883041  7.63642260432243 0  6.75 0  C 4.95978873968124 0  3.24289959669113 0.711158573627472  1.9770290851593 1.9770290851593  C 0.711158573627472 3.24289959669113  0 4.95978873968124  0 6.75  C 0 8.54021126031876  0.711158573627472 10.2570996880531  1.9770290851593 11.522970199585  C 3.24289959669113 12.7888407111168  4.95978873968124 13.4999999733238  6.75 13.5  Z " fill-rule="nonzero" fill="#ffffff" stroke="none" fill-opacity="0" transform="matrix(1 0 0 1 9 9 )" />
    <path d="M 18 18  L 11.7000002861023 11.7000002861023  L 18 18  Z " stroke-width="4" stroke="#000000" fill="none" transform="matrix(1 0 0 1 9 9 )" mask="url(#clip17)" />
    <path d="M 6.75 13.5  C 7.63642260432243 13.5000000132087  8.51416549086571 13.3254067003727  9.33311319351196 12.9861874580383  C 10.1520608961582 12.646968215704  10.8961747437716 12.1497656553984  11.522970199585 11.522970199585  C 12.1497656553984 10.8961747437716  12.6469681933522 10.1520608961582  12.9861874580383 9.33311319351196  C 13.3254067227244 8.51416549086571  13.5 7.63642260432243  13.5 6.75  C 13.5 5.86357739567757  13.3254067227244 4.98583450913429  12.9861874580383 4.16688680648804  C 12.6469681933522 3.34793910384178  12.1497656553984 2.60382454097271  11.522970199585 1.9770290851593  C 10.8961747437716 1.35023362934589  10.1520608961582 0.853032499551773  9.33311319351196 0.513813257217407  C 8.51416549086571 0.174594014883041  7.63642260432243 0  6.75 0  C 4.95978873968124 0  3.24289959669113 0.711158573627472  1.9770290851593 1.9770290851593  C 0.711158573627472 3.24289959669113  0 4.95978873968124  0 6.75  C 0 8.54021126031876  0.711158573627472 10.2570996880531  1.9770290851593 11.522970199585  C 3.24289959669113 12.7888407111168  4.95978873968124 13.4999999733238  6.75 13.5  Z " stroke-width="4" stroke="#000000" fill="none" transform="matrix(1 0 0 1 9 9 )" mask="url(#clip17)" />
  </g>
</svg>