<?xml version="1.0" encoding="utf-8"?>
<svg version="1.1" xmlns:xlink="http://www.w3.org/1999/xlink" width="28px" height="28px" xmlns="http://www.w3.org/2000/svg">
  <g transform="matrix(1 0 0 1 -1574 -603 )">
    <path d="M 20.34375 24.5771896660365  L 19.1322115384615 17.1493383742911  L 24.28125 11.9092627599244  L 17.1802884615385 10.815374921235  L 14 4.07561436672968  L 10.8197115384615 10.815374921235  L 3.71875 11.9092627599244  L 8.86778846153846 17.1493383742911  L 7.63942307692308 24.5771896660365  L 14 21.0661625708885  L 20.34375 24.5771896660365  Z M 27.0576923076923 10.0390674228103  C 27.6858974358974 10.1449275362319  28 10.4154589371981  28 10.8506616257089  C 28 11.1094307918504  27.8541666666667 11.3917244276412  27.5625 11.6975425330813  L 21.4543269230769 17.9432892249527  L 22.9014423076923 26.7649653434152  C 22.9126602564103 26.8473009871876  22.9182692307692 26.9649233354337  22.9182692307692 27.1178323881538  C 22.9182692307692 27.7059441293846  22.6883012820513 28  22.2283653846154 28  C 22.0152243589744 28  21.7908653846154 27.9294265910523  21.5552884615385 27.7882797731569  L 14 23.6244486452426  L 6.44471153846154 27.7882797731569  C 6.19791666666667 27.9294265910523  5.97355769230769 28  5.77163461538462 28  C 5.53605769230769 28  5.359375 27.9147237975215  5.24158653846154 27.7441713925646  C 5.12379807692308 27.5736189876076  5.06490384615385 27.3648393194707  5.06490384615385 27.1178323881538  C 5.06490384615385 27.047258979206  5.0761217948718 26.9296366309599  5.09855769230769 26.7649653434152  L 6.54567307692308 17.9432892249527  L 0.420673076923077 11.6975425330813  C 0.140224358974359 11.3799621928166  0 11.0976685570258  0 10.8506616257089  C 0 10.4154589371981  0.314102564102564 10.1449275362319  0.942307692307692 10.0390674228103  L 9.38942307692308 8.75110270951481  L 13.1754807692308 0.723377441713924  C 13.3886217948718 0.24112581390464  13.6634615384615 0  14 0  C 14.3365384615385 0  14.6113782051282 0.24112581390464  14.8245192307692 0.723377441713924  L 18.6105769230769 8.75110270951481  L 27.0576923076923 10.0390674228103  Z " fill-rule="nonzero" fill="#f2994a" stroke="none" transform="matrix(1 0 0 1 1574 603 )" />
  </g>
</svg>