<?xml version="1.0" encoding="utf-8"?>
<svg version="1.1" xmlns:xlink="http://www.w3.org/1999/xlink" width="59px" height="40px" xmlns="http://www.w3.org/2000/svg">
  <g transform="matrix(1 0 0 1 -1567 -371 )">
    <path d="M 43.8055245535714 31.3368055555556  C 48.2063802083333 28.5243055555556  51.866443452381 24.7453703703704  54.7857142857143 20  C 51.4494047619048 14.537037037037  47.2680431547619 10.4513888888889  42.2416294642857 7.74305555555555  C 43.5805431547619 10.150462962963  44.25 12.7546296296296  44.25 15.5555555555556  C 44.25 19.837962962963  42.8068266369048 23.5011574074074  39.9204799107143 26.5451388888889  C 37.0341331845238 29.5891203703704  33.5606398809524 31.1111111111111  29.5 31.1111111111111  C 25.4393601190476 31.1111111111111  21.9658668154762 29.5891203703704  19.0795200892857 26.5451388888889  C 16.1931733630952 23.5011574074074  14.75 19.837962962963  14.75 15.5555555555556  C 14.75 12.7546296296296  15.4194568452381 10.150462962963  16.7583705357143 7.74305555555555  C 11.7319568452381 10.4513888888889  7.55059523809524 14.537037037037  4.21428571428571 20  C 7.13355654761905 24.7453703703704  10.7936197916667 28.5243055555556  15.1944754464286 31.3368055555556  C 19.5953311011905 34.1493055555556  24.3638392857143 35.5555555555556  29.5 35.5555555555556  C 34.6361607142857 35.5555555555556  39.4046688988095 34.1493055555556  43.8055245535714 31.3368055555556  Z M 30.6194196428571 7.84722222222222  C 30.9267113095238 7.52314814814815  31.0803571428571 7.12962962962963  31.0803571428571 6.66666666666667  C 31.0803571428571 6.2037037037037  30.9267113095238 5.81018518518518  30.6194196428571 5.48611111111111  C 30.3121279761905 5.16203703703703  29.9389880952381 5  29.5 5  C 26.7563244047619 5  24.4022507440476 6.03587962962963  22.4377790178571 8.10763888888889  C 20.4733072916667 10.1793981481481  19.4910714285714 12.662037037037  19.4910714285714 15.5555555555556  C 19.4910714285714 16.0185185185185  19.6447172619048 16.412037037037  19.9520089285714 16.7361111111111  C 20.2593005952381 17.0601851851852  20.6324404761905 17.2222222222222  21.0714285714286 17.2222222222222  C 21.5104166666667 17.2222222222222  21.8835565476191 17.0601851851852  22.1908482142857 16.7361111111111  C 22.4981398809524 16.412037037037  22.6517857142857 16.0185185185185  22.6517857142857 15.5555555555556  C 22.6517857142857 13.5648148148148  23.3212425595238 11.8634259259259  24.66015625 10.4513888888889  C 25.9990699404762 9.03935185185185  27.6123511904762 8.33333333333333  29.5 8.33333333333334  C 29.9389880952381 8.33333333333333  30.3121279761905 8.17129629629629  30.6194196428571 7.84722222222222  Z M 58.3415178571429 17.6041666666667  C 58.780505952381 18.4143518518519  59 19.212962962963  59 20  C 59 20.787037037037  58.780505952381 21.5856481481481  58.3415178571429 22.3958333333333  C 55.2686011904762 27.7199074074074  51.1366257440476 31.9849537037037  45.9455915178571 35.1909722222222  C 40.7545572916667 38.3969907407407  35.272693452381 40  29.5 40  C 23.7273065476191 40  18.2454427083333 38.3912037037037  13.0544084821429 35.1736111111111  C 7.86337425595238 31.9560185185185  3.73139880952381 27.6967592592593  0.658482142857143 22.3958333333333  C 0.219494047619048 21.5856481481481  0 20.787037037037  0 20  C 0 19.212962962963  0.219494047619048 18.4143518518519  0.658482142857143 17.6041666666667  C 3.73139880952381 12.3032407407407  7.86337425595238 8.04398148148148  13.0544084821429 4.82638888888889  C 18.2454427083333 1.60879629629629  23.7273065476191 0  29.5 0  C 35.272693452381 0  40.7545572916667 1.60879629629629  45.9455915178571 4.82638888888889  C 51.1366257440476 8.04398148148148  55.2686011904762 12.3032407407407  58.3415178571429 17.6041666666667  Z " fill-rule="nonzero" fill="#f2994a" stroke="none" transform="matrix(1 0 0 1 1567 371 )" />
  </g>
</svg>