<?xml version="1.0" encoding="utf-8"?>
<svg version="1.1" xmlns:xlink="http://www.w3.org/1999/xlink" width="188px" height="79px" xmlns="http://www.w3.org/2000/svg">
  <g transform="matrix(1 0 0 1 -170 -406 )">
    <path d="M 171 442.275938735178  C 171 442.275938735178  171 411  171 411  C 171 408.790861000677  172.790861000677 407  175 407  C 175 407  353 407  353 407  C 355.209138999323 407  357 408.790861000677  357 411  C 357 411  357 442.275938735178  357 442.275938735178  C 357 444.10930970314  355.753609023295 445.707976971124  353.975605820589 446.155138818034  C 353.975605820589 446.155138818034  264.248971994726 482.335612687885  264.248971994726 482.335612687885  C 264.248971994726 482.335612687885  174.030028967694 446.156551598694  174.030028967694 446.156551598694  C 172.249277367892 445.711447299891  171 444.111475195456  171 442.275938735178  Z " fill-rule="nonzero" fill="#ffffff" stroke="none" />
  </g>
</svg>