<?xml version="1.0" encoding="utf-8"?>
<svg version="1.1" xmlns:xlink="http://www.w3.org/1999/xlink" width="116px" height="39px" xmlns="http://www.w3.org/2000/svg">
  <g transform="matrix(1 0 0 1 -84 -442 )">
    <path d="M 85 475.841573314108  C 85 475.841573314108  85 447.696428571429  85 447.696428571429  C 85 445.497997950408  86.7741813527095 443.711603789231  88.9725602454139 443.696522690052  C 88.9725602454139 443.696522690052  141.090112989528 443.000086266929  141.090112989528 443.000086266929  C 141.090112989528 443.000086266929  195.026511768531 443.696516431627  195.026511768531 443.696516431627  C 197.225255997675 443.71108990125  199 445.497636045697  199 447.696428571429  C 199 447.696428571429  199 475.841573314108  199 475.841573314108  C 199 478.050712313431  197.209138999323 479.841573314108  195 479.841573314108  C 195 479.841573314108  89 479.841573314108  89 479.841573314108  C 86.7908610006768 479.841573314108  85 478.050712313431  85 475.841573314108  Z " fill-rule="nonzero" fill="#ffffff" stroke="none" />
  </g>
</svg>