<?xml version="1.0" encoding="utf-8"?>
<svg version="1.1" xmlns:xlink="http://www.w3.org/1999/xlink" width="127px" height="42px" xmlns="http://www.w3.org/2000/svg">
  <g transform="matrix(1 0 0 1 -382 -444 )">
    <path d="M 383 480.829386645963  C 383 480.829386645963  383 449.75  383 449.75  C 383 447.540861000677  384.790861000677 445.75  387 445.75  C 387 445.75  387.375707531616 445.75  387.375707531616 445.75  C 387.375707531616 445.75  444.503804700036 445.000083255822  444.503804700036 445.000083255822  C 444.503804700036 445.000083255822  503.620974454377 445.75  503.620974454377 445.75  C 503.620974454377 445.75  504 445.75  504 445.75  C 506.209138999323 445.75  508 447.540861000677  508 449.75  C 508 449.75  508 480.829386645963  508 480.829386645963  C 508 483.038525645286  506.209138999323 484.829386645963  504 484.829386645963  C 504 484.829386645963  387 484.829386645963  387 484.829386645963  C 384.790861000677 484.829386645963  383 483.038525645286  383 480.829386645963  Z " fill-rule="nonzero" fill="#ffffff" stroke="none" />
  </g>
</svg>